<svg xmlns="http://www.w3.org/2000/svg" version="1.1" xmlns:xlink="http://www.w3.org/1999/xlink" xmlns:svgjs="http://svgjs.dev/svgjs" viewBox="0 0 800 800"><defs><linearGradient x1="50%" y1="0%" x2="50%" y2="100%" id="ffflurry-grad" gradientTransform="rotate(270)"><stop stop-color="hsl(238, 82%, 13%)" stop-opacity="1" offset="0%"></stop><stop stop-color="hsl(162, 100%, 58%)" stop-opacity="1" offset="45%"></stop><stop stop-color="hsl(270, 73%, 53%)" stop-opacity="1" offset="100%"></stop></linearGradient></defs><rect width="100%" height="100%" fill="hsl(238, 82%, 13%)"></rect><g fill="url(#ffflurry-grad)"><rect width="159" height="3" x="204.5" y="531.5" rx="1.5" transform="rotate(57, 284, 533)" opacity="0.71"></rect><rect width="443" height="3" x="-103.5" y="214.5" rx="1.5" transform="rotate(57, 118, 216)" opacity="0.83"></rect><rect width="124" height="3" x="446" y="409.5" rx="1.5" transform="rotate(57, 508, 411)" opacity="0.17"></rect><rect width="295" height="3" x="-58.5" y="547.5" rx="1.5" transform="rotate(57, 89, 549)" opacity="0.21"></rect><rect width="212" height="3" x="232" y="321.5" rx="1.5" transform="rotate(57, 338, 323)" opacity="0.48"></rect><rect width="530" height="3" x="322" y="307.5" rx="1.5" transform="rotate(57, 587, 309)" opacity="0.36"></rect><rect width="498" height="3" x="-191" y="52.5" rx="1.5" transform="rotate(57, 58, 54)" opacity="0.22"></rect><rect width="411" height="3" x="325.5" y="719.5" rx="1.5" transform="rotate(57, 531, 721)" opacity="0.48"></rect><rect width="217" height="3" x="183.5" y="130.5" rx="1.5" transform="rotate(57, 292, 132)" opacity="0.61"></rect><rect width="354" height="3" x="423" y="601.5" rx="1.5" transform="rotate(57, 600, 603)" opacity="0.69"></rect><rect width="307" height="3" x="208.5" y="584.5" rx="1.5" transform="rotate(57, 362, 586)" opacity="0.10"></rect><rect width="305" height="3" x="619.5" y="410.5" rx="1.5" transform="rotate(57, 772, 412)" opacity="0.11"></rect><rect width="142" height="3" x="319" y="189.5" rx="1.5" transform="rotate(57, 390, 191)" opacity="0.29"></rect><rect width="279" height="3" x="301.5" y="511.5" rx="1.5" transform="rotate(57, 441, 513)" opacity="0.48"></rect><rect width="444" height="3" x="539" y="508.5" rx="1.5" transform="rotate(57, 761, 510)" opacity="0.56"></rect><rect width="36" height="3" x="702" y="649.5" rx="1.5" transform="rotate(57, 720, 651)" opacity="0.84"></rect><rect width="421" height="3" x="11.5" y="110.5" rx="1.5" transform="rotate(57, 222, 112)" opacity="0.11"></rect><rect width="312" height="3" x="312" y="761.5" rx="1.5" transform="rotate(57, 468, 763)" opacity="0.39"></rect><rect width="119" height="3" x="666.5" y="154.5" rx="1.5" transform="rotate(57, 726, 156)" opacity="0.43"></rect><rect width="371" height="3" x="-142.5" y="158.5" rx="1.5" transform="rotate(57, 43, 160)" opacity="0.84"></rect><rect width="113" height="3" x="31.5" y="768.5" rx="1.5" transform="rotate(57, 88, 770)" opacity="0.61"></rect><rect width="125" height="3" x="512.5" y="44.5" rx="1.5" transform="rotate(57, 575, 46)" opacity="0.13"></rect><rect width="134" height="3" x="579" y="659.5" rx="1.5" transform="rotate(57, 646, 661)" opacity="0.44"></rect><rect width="240" height="3" x="257" y="756.5" rx="1.5" transform="rotate(57, 377, 758)" opacity="0.80"></rect><rect width="89" height="3" x="676.5" y="435.5" rx="1.5" transform="rotate(57, 721, 437)" opacity="0.91"></rect><rect width="87" height="3" x="187.5" y="757.5" rx="1.5" transform="rotate(57, 231, 759)" opacity="0.77"></rect><rect width="94" height="3" x="715" y="230.5" rx="1.5" transform="rotate(57, 762, 232)" opacity="0.18"></rect><rect width="393" height="3" x="556.5" y="585.5" rx="1.5" transform="rotate(57, 753, 587)" opacity="0.46"></rect><rect width="223" height="3" x="-20.5" y="698.5" rx="1.5" transform="rotate(57, 91, 700)" opacity="0.63"></rect><rect width="468" height="3" x="69" y="759.5" rx="1.5" transform="rotate(57, 303, 761)" opacity="0.52"></rect><rect width="503" height="3" x="-85.5" y="298.5" rx="1.5" transform="rotate(57, 166, 300)" opacity="0.97"></rect><rect width="284" height="3" x="229" y="504.5" rx="1.5" transform="rotate(57, 371, 506)" opacity="0.19"></rect><rect width="115" height="3" x="65.5" y="485.5" rx="1.5" transform="rotate(57, 123, 487)" opacity="0.73"></rect><rect width="102" height="3" x="-28" y="568.5" rx="1.5" transform="rotate(57, 23, 570)" opacity="0.33"></rect><rect width="355" height="3" x="239.5" y="686.5" rx="1.5" transform="rotate(57, 417, 688)" opacity="0.30"></rect><rect width="74" height="3" x="-15" y="674.5" rx="1.5" transform="rotate(57, 22, 676)" opacity="0.16"></rect><rect width="299" height="3" x="543.5" y="517.5" rx="1.5" transform="rotate(57, 693, 519)" opacity="0.22"></rect><rect width="136" height="3" x="244" y="220.5" rx="1.5" transform="rotate(57, 312, 222)" opacity="0.99"></rect><rect width="357" height="3" x="338.5" y="285.5" rx="1.5" transform="rotate(57, 517, 287)" opacity="0.54"></rect><rect width="500" height="3" x="248" y="548.5" rx="1.5" transform="rotate(57, 498, 550)" opacity="0.93"></rect><rect width="289" height="3" x="157.5" y="36.5" rx="1.5" transform="rotate(57, 302, 38)" opacity="0.70"></rect><rect width="276" height="3" x="489" y="459.5" rx="1.5" transform="rotate(57, 627, 461)" opacity="0.27"></rect><rect width="184" height="3" x="590" y="397.5" rx="1.5" transform="rotate(57, 682, 399)" opacity="0.47"></rect><rect width="470" height="3" x="309" y="638.5" rx="1.5" transform="rotate(57, 544, 640)" opacity="0.57"></rect><rect width="69" height="3" x="91.5" y="617.5" rx="1.5" transform="rotate(57, 126, 619)" opacity="0.08"></rect><rect width="375" height="3" x="-133.5" y="628.5" rx="1.5" transform="rotate(57, 54, 630)" opacity="0.41"></rect><rect width="24" height="3" x="414" y="18.5" rx="1.5" transform="rotate(57, 426, 20)" opacity="0.47"></rect><rect width="35" height="3" x="631.5" y="556.5" rx="1.5" transform="rotate(57, 649, 558)" opacity="0.90"></rect><rect width="50" height="3" x="736" y="727.5" rx="1.5" transform="rotate(57, 761, 729)" opacity="0.35"></rect><rect width="154" height="3" x="66" y="131.5" rx="1.5" transform="rotate(57, 143, 133)" opacity="0.54"></rect><rect width="43" height="3" x="137.5" y="751.5" rx="1.5" transform="rotate(57, 159, 753)" opacity="0.87"></rect><rect width="216" height="3" x="334" y="620.5" rx="1.5" transform="rotate(57, 442, 622)" opacity="0.70"></rect><rect width="223" height="3" x="85.5" y="474.5" rx="1.5" transform="rotate(57, 197, 476)" opacity="0.08"></rect><rect width="176" height="3" x="482" y="451.5" rx="1.5" transform="rotate(57, 570, 453)" opacity="0.39"></rect><rect width="353" height="3" x="237.5" y="414.5" rx="1.5" transform="rotate(57, 414, 416)" opacity="0.08"></rect><rect width="747" height="3" x="336.5" y="54.5" rx="1.5" transform="rotate(57, 710, 56)" opacity="0.27"></rect><rect width="200" height="3" x="-74" y="753.5" rx="1.5" transform="rotate(57, 26, 755)" opacity="0.17"></rect><rect width="267" height="3" x="386.5" y="97.5" rx="1.5" transform="rotate(57, 520, 99)" opacity="0.73"></rect><rect width="208" height="3" x="-59" y="365.5" rx="1.5" transform="rotate(57, 45, 367)" opacity="0.59"></rect><rect width="70" height="3" x="153" y="671.5" rx="1.5" transform="rotate(57, 188, 673)" opacity="0.77"></rect><rect width="412" height="3" x="170" y="99.5" rx="1.5" transform="rotate(57, 376, 101)" opacity="0.41"></rect><rect width="300" height="3" x="305" y="227.5" rx="1.5" transform="rotate(57, 455, 229)" opacity="0.59"></rect><rect width="442" height="3" x="-81" y="379.5" rx="1.5" transform="rotate(57, 140, 381)" opacity="0.97"></rect><rect width="350" height="3" x="97" y="675.5" rx="1.5" transform="rotate(57, 272, 677)" opacity="0.29"></rect><rect width="144" height="3" x="144" y="582.5" rx="1.5" transform="rotate(57, 216, 584)" opacity="0.28"></rect><rect width="314" height="3" x="181" y="659.5" rx="1.5" transform="rotate(57, 338, 661)" opacity="0.51"></rect><rect width="275" height="3" x="380.5" y="166.5" rx="1.5" transform="rotate(57, 518, 168)" opacity="0.98"></rect><rect width="146" height="3" x="375" y="73.5" rx="1.5" transform="rotate(57, 448, 75)" opacity="0.16"></rect><rect width="463" height="3" x="-188.5" y="461.5" rx="1.5" transform="rotate(57, 43, 463)" opacity="0.42"></rect><rect width="289" height="3" x="502.5" y="754.5" rx="1.5" transform="rotate(57, 647, 756)" opacity="0.20"></rect><rect width="103" height="3" x="-0.5" y="271.5" rx="1.5" transform="rotate(57, 51, 273)" opacity="0.35"></rect><rect width="273" height="3" x="40.5" y="37.5" rx="1.5" transform="rotate(57, 177, 39)" opacity="0.74"></rect><rect width="202" height="3" x="643" y="308.5" rx="1.5" transform="rotate(57, 744, 310)" opacity="0.45"></rect><rect width="112" height="3" x="613" y="315.5" rx="1.5" transform="rotate(57, 669, 317)" opacity="0.41"></rect><rect width="82" height="3" x="578" y="198.5" rx="1.5" transform="rotate(57, 619, 200)" opacity="0.46"></rect><rect width="102" height="3" x="515" y="524.5" rx="1.5" transform="rotate(57, 566, 526)" opacity="0.12"></rect><rect width="199" height="3" x="224.5" y="438.5" rx="1.5" transform="rotate(57, 324, 440)" opacity="0.34"></rect><rect width="303" height="3" x="98.5" y="390.5" rx="1.5" transform="rotate(57, 250, 392)" opacity="0.57"></rect><rect width="110" height="3" x="554" y="382.5" rx="1.5" transform="rotate(57, 609, 384)" opacity="0.39"></rect><rect width="520" height="3" x="-9" y="284.5" rx="1.5" transform="rotate(57, 251, 286)" opacity="0.79"></rect><rect width="202" height="3" x="565" y="476.5" rx="1.5" transform="rotate(57, 666, 478)" opacity="0.13"></rect><rect width="339" height="3" x="262.5" y="322.5" rx="1.5" transform="rotate(57, 432, 324)" opacity="0.33"></rect><rect width="234" height="3" x="95" y="204.5" rx="1.5" transform="rotate(57, 212, 206)" opacity="0.19"></rect></g></svg>