<?xml version="1.0" encoding="utf-8"?>
<!-- Generator: Adobe Illustrator 27.5.0, SVG Export Plug-In . SVG Version: 6.00 Build 0)  -->
<svg version="1.1" xmlns="http://www.w3.org/2000/svg" xmlns:xlink="http://www.w3.org/1999/xlink" x="0px" y="0px"
	 viewBox="0 0 750 500" style="enable-background:new 0 0 750 500;" xml:space="preserve">

<g id="OBJECTS">
	<g>
		
			<text transform="matrix(1 0 0 1 274.3652 358.6953)" style="fill:#ffffff; font-family:'WorkSans-ExtraBold'; font-size:34.0792px;">Projeto Deilton</text>
		<g>
			<linearGradient id="SVGID_1_" gradientUnits="userSpaceOnUse" x1="191.9516" y1="222.9402" x2="558.0484" y2="222.9402">
				<stop  offset="0" style="stop-color:#FFDE3E"/>
				<stop  offset="0.25" style="stop-color:#FF793E"/>
				<stop  offset="0.5" style="stop-color:#FF31FA"/>
				<stop  offset="0.751" style="stop-color:#8733FF"/>
				<stop  offset="1" style="stop-color:#221DFF"/>
			</linearGradient>
			<path style="fill:url(#SVGID_1_);" d="M473.975,304.097c-45.715,0-75.348-29.624-104.006-58.272l-22.872-22.872l0.003-0.003
				c-26.231-25.988-44.763-41.706-71.076-41.706c-12.515,0-23.97,4.417-32.256,12.438c-7.969,7.713-12.357,18.104-12.357,29.259
				c0,11.154,4.388,21.546,12.357,29.259c8.286,8.02,19.741,12.436,32.256,12.436c11.355,0,21.579-2.845,32.297-9.101l-9.361-9.361
				h-20.579c-10.411,0-18.881-8.47-18.881-18.881v-20.579h45.038c6.943,0,13.47,2.704,18.38,7.614l32.308,32.308
				c3.151,3.151,4.873,7.513,4.725,11.969c-0.148,4.443-2.149,8.669-5.489,11.592c-34.134,29.873-58.806,33.901-78.438,33.901
				c-47.144,0-84.073-35.648-84.073-81.156c0-45.508,36.929-81.157,84.073-81.157c45.715,0,75.348,29.624,104.006,58.272
				l23.396,23.396c25.954,25.678,44.413,41.185,70.548,41.185c12.515,0,23.971-4.417,32.257-12.437
				c7.967-7.713,12.356-18.104,12.356-29.259c0-11.155-4.389-21.546-12.357-29.259c-8.285-8.02-19.741-12.437-32.256-12.437
				c-17.286,0-31.914,6.488-50.492,22.395c-3.378,2.892-7.686,4.485-12.127,4.485c-4.969,0-9.639-1.933-13.149-5.444l-15.372-15.371
				l5.402-5.025c26.135-24.309,50.717-40.5,85.738-40.5c47.143,0,84.073,35.648,84.073,81.157
				C558.048,268.449,521.119,304.097,473.975,304.097z"/>
			
				<linearGradient id="SVGID_00000124867007162337644260000010290273813926385815_" gradientUnits="userSpaceOnUse" x1="191.9516" y1="222.9402" x2="558.0484" y2="222.9402">
				<stop  offset="0" style="stop-color:#FFDE3E"/>
				<stop  offset="0.25" style="stop-color:#FF793E"/>
				<stop  offset="0.5" style="stop-color:#FF31FA"/>
				<stop  offset="0.751" style="stop-color:#8733FF"/>
				<stop  offset="1" style="stop-color:#221DFF"/>
			</linearGradient>
			<path style="fill:url(#SVGID_00000124867007162337644260000010290273813926385815_);" d="M473.975,304.097
				c-45.715,0-75.348-29.624-104.006-58.272l-22.872-22.872l0.003-0.003c-26.231-25.988-44.763-41.706-71.076-41.706
				c-12.515,0-23.97,4.417-32.256,12.438c-7.969,7.713-12.357,18.104-12.357,29.259c0,11.154,4.388,21.546,12.357,29.259
				c8.286,8.02,19.741,12.436,32.256,12.436c11.355,0,21.579-2.845,32.297-9.101l-9.361-9.361h-20.579
				c-10.411,0-18.881-8.47-18.881-18.881v-20.579h45.038c6.943,0,13.47,2.704,18.38,7.614l32.308,32.308
				c3.151,3.151,4.873,7.513,4.725,11.969c-0.148,4.443-2.149,8.669-5.489,11.592c-34.134,29.873-58.806,33.901-78.438,33.901
				c-47.144,0-84.073-35.648-84.073-81.156c0-45.508,36.929-81.157,84.073-81.157c45.715,0,75.348,29.624,104.006,58.272
				l23.396,23.396c25.954,25.678,44.413,41.185,70.548,41.185c12.515,0,23.971-4.417,32.257-12.437
				c7.967-7.713,12.356-18.104,12.356-29.259c0-11.155-4.389-21.546-12.357-29.259c-8.285-8.02-19.741-12.437-32.256-12.437
				c-17.286,0-31.914,6.488-50.492,22.395c-3.378,2.892-7.686,4.485-12.127,4.485c-4.969,0-9.639-1.933-13.149-5.444l-15.372-15.371
				l5.402-5.025c26.135-24.309,50.717-40.5,85.738-40.5c47.143,0,84.073,35.648,84.073,81.157
				C558.048,268.449,521.119,304.097,473.975,304.097z"/>
			
				<linearGradient id="SVGID_00000011709666090544376840000004530328283044390311_" gradientUnits="userSpaceOnUse" x1="348.8715" y1="186.8147" x2="510.956" y2="186.8147">
				<stop  offset="0.21" style="stop-color:#FF31FA"/>
				<stop  offset="0.5859" style="stop-color:#8733FF"/>
				<stop  offset="0.7322" style="stop-color:#5927BB"/>
				<stop  offset="0.8548" style="stop-color:#371E88"/>
				<stop  offset="0.9473" style="stop-color:#22196A"/>
				<stop  offset="0.999" style="stop-color:#1A175E"/>
			</linearGradient>
			<path style="fill:url(#SVGID_00000011709666090544376840000004530328283044390311_);" d="M411.357,208.124
				c4.441,0,8.749-1.592,12.127-4.485c18.577-15.907,33.206-22.395,50.492-22.395c12.515,0,23.971,4.417,32.256,12.437
				c7.95,7.696,12.335,18.057,12.355,29.182c0.12,1.663,0.061,3.16-0.221,4.399c10.707-46.987-31.899-101.025-92.43-73.37
				c-0.001,0-0.001,0.001-0.002,0.001c-0.799,0.429-1.595,0.87-2.388,1.319c-0.026,0.015-0.052,0.029-0.079,0.044
				c-0.77,0.438-1.537,0.885-2.301,1.342c-0.051,0.03-0.101,0.06-0.152,0.09c-0.745,0.446-1.488,0.902-2.228,1.366
				c-0.069,0.043-0.137,0.086-0.206,0.129c-0.722,0.454-1.441,0.917-2.159,1.387c-0.089,0.058-0.178,0.116-0.267,0.175
				c-0.699,0.46-1.395,0.928-2.091,1.403c-0.108,0.074-0.216,0.148-0.325,0.223c-0.676,0.465-1.352,0.937-2.025,1.416
				c-0.128,0.091-0.256,0.183-0.384,0.274c-0.655,0.469-1.309,0.943-1.962,1.425c-0.147,0.108-0.294,0.218-0.44,0.327
				c-0.634,0.471-1.267,0.947-1.899,1.43c-0.168,0.129-0.336,0.259-0.505,0.388c-0.61,0.469-1.22,0.942-1.829,1.423
				c-0.195,0.154-0.391,0.311-0.586,0.466c-0.584,0.464-1.167,0.93-1.75,1.404c-0.222,0.18-0.443,0.363-0.665,0.545
				c-0.557,0.456-1.113,0.913-1.67,1.378c-0.256,0.214-0.513,0.432-0.769,0.648c-0.524,0.441-1.048,0.883-1.571,1.331
				c-0.3,0.257-0.6,0.519-0.9,0.778c-0.48,0.415-0.96,0.829-1.44,1.25c-0.365,0.32-0.73,0.646-1.095,0.969
				c-0.421,0.373-0.841,0.743-1.262,1.12c-0.45,0.403-0.901,0.814-1.351,1.222c-0.339,0.308-0.678,0.611-1.018,0.922
				c-0.793,0.724-1.586,1.456-2.381,2.195l-5.402,5.025l15.372,15.371C401.718,206.191,406.387,208.124,411.357,208.124z"/>
			
				<linearGradient id="SVGID_00000062150127505087199220000008315330102526368958_" gradientUnits="userSpaceOnUse" x1="208.5283" y1="264.891" x2="376.4675" y2="264.891">
				<stop  offset="0.1404" style="stop-color:#FF31FA;stop-opacity:0"/>
				<stop  offset="0.4275" style="stop-color:#8733FF"/>
				<stop  offset="0.5457" style="stop-color:#5927BB"/>
				<stop  offset="0.6446" style="stop-color:#371E88"/>
				<stop  offset="0.7193" style="stop-color:#22196A"/>
				<stop  offset="0.7611" style="stop-color:#1A175E"/>
			</linearGradient>
			<path style="fill:url(#SVGID_00000062150127505087199220000008315330102526368958_);" d="M345.805,237.214
				c-8.698,3.09-27.915,9.94-41.148,14.657l3.664,3.664c-10.718,6.256-20.942,9.101-32.297,9.101
				c-12.515,0-23.97-4.417-32.256-12.436c-7.31-7.077-11.596-16.409-12.256-26.515h-39.491
				c1.454,44.186,37.814,78.412,84.003,78.412c19.632,0,44.304-4.028,78.438-33.901c3.34-2.924,5.341-7.149,5.489-11.592
				c0.148-4.456-1.574-8.818-4.725-11.969L345.805,237.214z"/>
			
				<linearGradient id="SVGID_00000021836706691354413090000003185413039789137572_" gradientUnits="userSpaceOnUse" x1="342.6315" y1="280.0541" x2="235.6614" y2="186.8207">
				<stop  offset="0" style="stop-color:#221DFF"/>
				<stop  offset="0.3213" style="stop-color:#8733FF"/>
				<stop  offset="0.8151" style="stop-color:#FF31FA"/>
				<stop  offset="0.9677" style="stop-color:#FF793E"/>
				<stop  offset="1" style="stop-color:#FFDE3E"/>
			</linearGradient>
			<path style="fill:url(#SVGID_00000021836706691354413090000003185413039789137572_);" d="M355.226,246.635l-32.308-32.308
				c-4.91-4.91-11.437-7.614-18.38-7.614H259.5l39.46,39.461l9.361,9.361c16.1,16.1,17.67,36.248,0.077,43.31
				c8.594-3.012,18.007-7.69,28.397-14.836l0.008,0.008c5.594-3.848,11.469-8.405,17.658-13.822
				c3.34-2.924,5.341-7.149,5.489-11.592C360.099,254.148,358.377,249.786,355.226,246.635z"/>
			
				<linearGradient id="SVGID_00000084491933880299411660000015330863545332650136_" gradientUnits="userSpaceOnUse" x1="497.6636" y1="311.337" x2="263.7418" y2="142.7693">
				<stop  offset="0.003" style="stop-color:#1D254F"/>
				<stop  offset="0.0504" style="stop-color:#292658"/>
				<stop  offset="0.1352" style="stop-color:#48276F"/>
				<stop  offset="0.2476" style="stop-color:#7A2A95"/>
				<stop  offset="0.3818" style="stop-color:#BE2EC9"/>
				<stop  offset="0.4975" style="stop-color:#FF31FA"/>
				<stop  offset="1" style="stop-color:#FFDE3E"/>
			</linearGradient>
			<path style="fill:url(#SVGID_00000084491933880299411660000015330863545332650136_);" d="M519.806,291.33
				c-24.097,13.055-50.133-1.632-70.806-22.305c-20.733-20.733-45.573-45.573-45.573-45.573l-23.396-23.396
				c-28.658-28.648-58.291-58.272-104.006-58.272c-17.038,0-32.728,4.675-45.836,12.77c32.017-18.569,58.695,10.179,77.319,28.803
				c18.705,18.705,39.594,39.594,39.594,39.594s0.01,0.015,0.012,0.018l22.857,22.857c28.658,28.648,58.291,58.272,104.006,58.272
				C491.011,304.097,506.699,299.423,519.806,291.33z"/>
		</g>
	</g>
</g>
</svg>
